<svg width="37" height="37" viewBox="0 0 37 37" fill="none" xmlns="http://www.w3.org/2000/svg">
<path d="M18.5 3.0835C15.4509 3.0835 12.4702 3.98767 9.93495 5.68167C7.39969 7.37568 5.42369 9.78343 4.25684 12.6005C3.08999 15.4175 2.78469 18.5173 3.37955 21.5078C3.9744 24.4983 5.4427 27.2453 7.59876 29.4014C9.75482 31.5575 12.5018 33.0257 15.4923 33.6206C18.4829 34.2155 21.5827 33.9102 24.3997 32.7433C27.2167 31.5765 29.6245 29.6005 31.3185 27.0652C33.0125 24.5299 33.9167 21.5493 33.9167 18.5002C33.9167 16.4756 33.5179 14.4709 32.7431 12.6005C31.9684 10.73 30.8328 9.0305 29.4012 7.59893C27.9696 6.16736 26.2701 5.03178 24.3997 4.25702C22.5293 3.48226 20.5245 3.0835 18.5 3.0835V3.0835ZM18.5 30.8335C16.0607 30.8335 13.6762 30.1102 11.648 28.755C9.61975 27.3997 8.03895 25.4735 7.10547 23.2199C6.17199 20.9663 5.92775 18.4865 6.40364 16.094C6.87952 13.7016 8.05416 11.504 9.779 9.77918C11.5039 8.05433 13.7014 6.8797 16.0939 6.40381C18.4863 5.92793 20.9661 6.17217 23.2197 7.10565C25.4734 8.03913 27.3996 9.61992 28.7548 11.6481C30.11 13.6763 30.8333 16.0609 30.8333 18.5002C30.8333 21.7712 29.5339 24.9082 27.221 27.2211C24.908 29.5341 21.771 30.8335 18.5 30.8335V30.8335ZM24.6667 16.9585H20.0417V12.3335C20.0417 11.9246 19.8792 11.5325 19.5901 11.2434C19.301 10.9543 18.9089 10.7918 18.5 10.7918C18.0911 10.7918 17.699 10.9543 17.4099 11.2434C17.1207 11.5325 16.9583 11.9246 16.9583 12.3335V16.9585H12.3333C11.9244 16.9585 11.5323 17.1209 11.2432 17.41C10.9541 17.6992 10.7917 18.0913 10.7917 18.5002C10.7917 18.909 10.9541 19.3012 11.2432 19.5903C11.5323 19.8794 11.9244 20.0418 12.3333 20.0418H16.9583V24.6668C16.9583 25.0757 17.1207 25.4678 17.4099 25.757C17.699 26.0461 18.0911 26.2085 18.5 26.2085C18.9089 26.2085 19.301 26.0461 19.5901 25.757C19.8792 25.4678 20.0417 25.0757 20.0417 24.6668V20.0418H24.6667C25.0755 20.0418 25.4677 19.8794 25.7568 19.5903C26.0459 19.3012 26.2083 18.909 26.2083 18.5002C26.2083 18.0913 26.0459 17.6992 25.7568 17.41C25.4677 17.1209 25.0755 16.9585 24.6667 16.9585Z" fill="white"/>
</svg>
